<svg width="64" height="64" viewBox="0 0 64 64" fill="none" xmlns="http://www.w3.org/2000/svg">
<rect width="64" height="64" fill="#F5F7FA"/>
<path d="M22.293 22.293C22.6591 21.9269 23.2381 21.9043 23.6309 22.2246L23.707 22.293L24.376 22.9629C24.4667 23.0107 24.5516 23.0729 24.627 23.1504C24.6943 23.2197 24.7487 23.2967 24.792 23.3779L40.6543 39.2402C40.721 39.2799 40.7848 39.3271 40.8428 39.3838C40.9066 39.4462 40.9594 39.5156 41.0029 39.5889L41.707 40.293L41.7754 40.3691C42.0957 40.7619 42.0731 41.3409 41.707 41.707C41.3409 42.0731 40.7619 42.0957 40.3691 41.7754L40.293 41.707L40.0312 41.4453C39.8768 41.5364 39.7168 41.6187 39.5508 41.6885C39.0599 41.8948 38.5325 41.9996 38 41.999V42H26C24.9391 42 23.922 41.5783 23.1719 40.8281C22.4686 40.1248 22.0539 39.1869 22.0049 38.1982L22 38V26C22 25.2581 22.203 24.5633 22.5547 23.9678L22.293 23.707L22.2246 23.6309C21.9043 23.2381 21.9269 22.6591 22.293 22.293ZM40 37V36.4141L37.3066 33.7207L37.1787 33.6074C36.8855 33.37 36.6269 33.3149 36.4238 33.334C35.874 33.3857 35.3857 32.9815 35.334 32.4316C35.2823 31.8818 35.6865 31.3945 36.2363 31.3428C37.0951 31.262 37.9022 31.5774 38.5635 32.1602L38.6934 32.2793L40 33.5859V26C40 25.4696 39.7891 24.961 39.4141 24.5859C39.039 24.2109 38.5304 24 38 24H27C26.4477 24 26 23.5523 26 23C26 22.4477 26.4477 22 27 22H38C39.0609 22 40.078 22.4217 40.8281 23.1719C41.5783 23.922 42 24.9391 42 26V37C42 37.5523 41.5523 38 41 38C40.4477 38 40 37.5523 40 37ZM35.0098 27C35.5621 27 36.0098 27.4477 36.0098 28C36.0098 28.5523 35.5621 29 35.0098 29H35C34.4477 29 34 28.5523 34 28C34 27.4477 34.4477 27 35 27H35.0098ZM24.0098 38.1973C24.0551 38.6553 24.2577 39.0858 24.5859 39.4141C24.961 39.7891 25.4696 40 26 40H38.001L38.2002 39.9902C38.307 39.9797 38.4119 39.9573 38.5156 39.9297L30.3066 31.7207L30.1904 31.6172C29.9238 31.398 29.6866 31.3301 29.5 31.3301C29.2867 31.3301 29.0072 31.4187 28.6934 31.7207L24 36.4141V38L24.0098 38.1973ZM24 33.5859L27.3066 30.2793C27.5842 30.0122 27.892 29.7952 28.2207 29.6348L24.0693 25.4834C24.0255 25.6483 24 25.821 24 26V33.5859Z" fill="#CAD0D8"/>
</svg>